<?xml version="1.0" encoding="UTF-8" standalone="no"?>
<!-- Created with Inkscape (http://www.inkscape.org/) -->

<svg
   xmlns:dc="http://purl.org/dc/elements/1.1/"
   xmlns:cc="http://creativecommons.org/ns#"
   xmlns:rdf="http://www.w3.org/1999/02/22-rdf-syntax-ns#"
   xmlns:svg="http://www.w3.org/2000/svg"
   xmlns="http://www.w3.org/2000/svg"
   xmlns:xlink="http://www.w3.org/1999/xlink"
   xmlns:sodipodi="http://sodipodi.sourceforge.net/DTD/sodipodi-0.dtd"
   xmlns:inkscape="http://www.inkscape.org/namespaces/inkscape"
   width="210mm"
   height="297mm"
   viewBox="0 0 744.09448819 1052.3622047"
   id="svg2"
   version="1.1"
   inkscape:version="0.91 r13725"
   sodipodi:docname="logo.svg">
  <defs
     id="defs4">
    <linearGradient
       inkscape:collect="always"
       id="linearGradient4196">
      <stop
         style="stop-color:#000000;stop-opacity:1;"
         offset="0"
         id="stop4198" />
      <stop
         style="stop-color:#000000;stop-opacity:0;"
         offset="1"
         id="stop4200" />
    </linearGradient>
    <linearGradient
       inkscape:collect="always"
       xlink:href="#linearGradient4196"
       id="linearGradient4202"
       x1="-192.38837"
       y1="-112.33228"
       x2="564.85742"
       y2="567.18079"
       gradientUnits="userSpaceOnUse" />
  </defs>
  <sodipodi:namedview
     id="base"
     pagecolor="#ffffff"
     bordercolor="#666666"
     borderopacity="1.0"
     inkscape:pageopacity="0.0"
     inkscape:pageshadow="2"
     inkscape:zoom="0.5672028"
     inkscape:cx="459.27052"
     inkscape:cy="539.59427"
     inkscape:document-units="px"
     inkscape:current-layer="layer1"
     showgrid="false"
     inkscape:window-width="1920"
     inkscape:window-height="1136"
     inkscape:window-x="1600"
     inkscape:window-y="27"
     inkscape:window-maximized="1" />
  <metadata
     id="metadata7">
    <rdf:RDF>
      <cc:Work
         rdf:about="">
        <dc:format>image/svg+xml</dc:format>
        <dc:type
           rdf:resource="http://purl.org/dc/dcmitype/StillImage" />
        <dc:title></dc:title>
      </cc:Work>
    </rdf:RDF>
  </metadata>
  <g
     inkscape:label="Capa 1"
     inkscape:groupmode="layer"
     id="layer1">
    <rect
       style="opacity:1;fill:#04652f;fill-opacity:1;fill-rule:nonzero;stroke:none;stroke-width:1;stroke-linecap:round;stroke-linejoin:round;stroke-miterlimit:4;stroke-dasharray:none;stroke-opacity:1"
       id="rect4136"
       width="471.42856"
       height="471.42856"
       x="145.71428"
       y="163.79077"
       rx="235.71428"
       ry="235.71428"
       inkscape:export-filename="/home/danigm/logo.png"
       inkscape:export-xdpi="38.18"
       inkscape:export-ydpi="38.18" />
    <path
       style="opacity:1;fill:url(#linearGradient4202);fill-opacity:1;fill-rule:nonzero;stroke:none;stroke-width:1;stroke-linecap:round;stroke-linejoin:round;stroke-miterlimit:4;stroke-dasharray:none;stroke-dashoffset:0;stroke-opacity:1"
       d="M 405.50586 229.69141 L 213.11719 471.95898 L 241.60742 493.12695 L 326.30469 628.77539 C 339.024 631.80114 352.14788 633.7997 365.58789 634.68359 L 324.74609 552.53125 L 353.29492 576.11914 L 383.5 635.19336 C 498.69725 634.20932 593.66954 551.41713 613.38086 441.82422 L 544.12891 324.51172 L 507.24805 345.35742 L 426.78125 238.2793 L 405.50586 229.69141 z "
       id="path4178" />
    <path
       inkscape:connector-curvature="0"
       style="opacity:1;fill:#ffffff;fill-opacity:1;fill-rule:nonzero;stroke:none;stroke-width:1;stroke-linecap:round;stroke-linejoin:round;stroke-miterlimit:4;stroke-dasharray:none;stroke-opacity:1"
       d="m 208.26058,468.73576 189.604,-252.40539 32.32187,24.27981 a 51.44718,51.44718 0 0 0 10.59472,71.51752 51.44718,51.44718 0 0 0 71.62974,-9.75146 l 32.33038,24.2862 -189.604,252.4054 -32.31165,-24.27213 a 51.44718,51.44718 0 0 0 0.108,-0.12925 51.44718,51.44718 0 0 0 -10.23322,-72.03424 51.44718,51.44718 0 0 0 -72.03381,10.23621 51.44718,51.44718 0 0 0 -0.0958,0.13841 l -32.30995,-24.27086 z m 55.83561,-32.1748 104.23657,78.3013 104.5083,-139.12396 -104.23657,-78.30129 -104.5083,139.12395 z m 15.08503,-2.14331 91.56658,-121.89561 87.00823,65.35957 -91.56658,121.89562 -87.00823,-65.35958 z"
       id="rect4140" />
    <path
       style="opacity:1;fill:#ce5c00;fill-opacity:1;fill-rule:nonzero;stroke:#04652f;stroke-width:4;stroke-linecap:round;stroke-linejoin:round;stroke-miterlimit:4;stroke-dasharray:11.99999955, 11.99999955;stroke-dashoffset:0;stroke-opacity:1"
       d="M 359.21772,267.33015 506.01797,378.09081"
       id="path4172"
       inkscape:connector-curvature="0"
       sodipodi:nodetypes="cc" />
  </g>
</svg>
